# xmcd CD database file
#
# Track frame offsets:
#	150
#	21715
#	43935
#	58161
#	87364
#	103129
#	121863
#	138735
#	152083
#	165136
#	184007
#	193278
#	206777
#
# Disc length: 2909 seconds
#
# Revision: 1
# Processed by: cddbd v1.5.1PL0 Copyright (c) Steve Scherf et al.
# Submitted via: CDex 1.51
#
DISCID=c10b5b0d
DTITLE=Paul Cardall - Miracles
DYEAR=2004
DGENRE=Jazz
TTITLE0=Miracles
TTITLE1=Voices
TTITLE2=Time
TTITLE3=An Unseen World
TTITLE4=Live To Love
TTITLE5=Leaving L.A.
TTITLE6=Sequoia's Path
TTITLE7=Driving North
TTITLE8=After The Storm
TTITLE9=The Memory Lives On (Featuring Kimberly Summers)
TTITLE10=Back To L.A.
TTITLE11=Sign Of Affection
TTITLE12=Gone Home
EXTD=YEAR: 2004
EXTT0=
EXTT1=
EXTT2=
EXTT3=
EXTT4=
EXTT5=
EXTT6=
EXTT7=
EXTT8=
EXTT9=
EXTT10=
EXTT11=
EXTT12=
PLAYORDER=
